<mxfile host="app.diagrams.net" modified="2023-05-03T07:58:54.954Z" agent="Mozilla/5.0 (Windows NT 10.0; Win64; x64; rv:109.0) Gecko/20100101 Firefox/112.0" etag="xySUdjeGXNZz5fIO1r-a" version="21.2.4" type="github">
  <diagram name="Page-1" id="VQaNYO2VKrX5yNo_5s4D">
    <mxGraphModel dx="794" dy="462" grid="1" gridSize="10" guides="1" tooltips="1" connect="1" arrows="1" fold="1" page="1" pageScale="1" pageWidth="827" pageHeight="1169" math="0" shadow="0">
      <root>
        <mxCell id="0" />
        <mxCell id="1" parent="0" />
        <mxCell id="26--hZMdpes1O9Ble08R-8" value="" style="edgeStyle=orthogonalEdgeStyle;rounded=0;orthogonalLoop=1;jettySize=auto;html=1;" parent="1" source="26--hZMdpes1O9Ble08R-3" target="26--hZMdpes1O9Ble08R-7" edge="1">
          <mxGeometry relative="1" as="geometry" />
        </mxCell>
        <mxCell id="26--hZMdpes1O9Ble08R-3" value="Classification" style="rounded=1;whiteSpace=wrap;html=1;fillColor=#f5f5f5;strokeColor=#666666;fontStyle=1;fontColor=#333333;" parent="1" vertex="1">
          <mxGeometry x="250" y="40" width="120" height="80" as="geometry" />
        </mxCell>
        <mxCell id="26--hZMdpes1O9Ble08R-11" value="" style="edgeStyle=orthogonalEdgeStyle;rounded=0;orthogonalLoop=1;jettySize=auto;html=1;" parent="1" source="26--hZMdpes1O9Ble08R-4" target="26--hZMdpes1O9Ble08R-10" edge="1">
          <mxGeometry relative="1" as="geometry" />
        </mxCell>
        <mxCell id="26--hZMdpes1O9Ble08R-4" value="&lt;div&gt;Anomaly&lt;/div&gt;&lt;div&gt;Detection&lt;br&gt;&lt;/div&gt;" style="rounded=1;whiteSpace=wrap;html=1;fillColor=#f5f5f5;strokeColor=#666666;fontStyle=1;fontColor=#333333;" parent="1" vertex="1">
          <mxGeometry x="480" y="40" width="120" height="80" as="geometry" />
        </mxCell>
        <mxCell id="26--hZMdpes1O9Ble08R-6" value="" style="edgeStyle=orthogonalEdgeStyle;rounded=0;orthogonalLoop=1;jettySize=auto;html=1;" parent="1" source="26--hZMdpes1O9Ble08R-5" target="26--hZMdpes1O9Ble08R-3" edge="1">
          <mxGeometry relative="1" as="geometry" />
        </mxCell>
        <mxCell id="26--hZMdpes1O9Ble08R-5" value="Raw time series sensor data" style="text;html=1;strokeColor=none;fillColor=none;align=center;verticalAlign=middle;whiteSpace=wrap;rounded=0;fontStyle=1" parent="1" vertex="1">
          <mxGeometry x="110" y="65" width="100" height="30" as="geometry" />
        </mxCell>
        <mxCell id="26--hZMdpes1O9Ble08R-9" value="" style="edgeStyle=orthogonalEdgeStyle;rounded=0;orthogonalLoop=1;jettySize=auto;html=1;" parent="1" source="26--hZMdpes1O9Ble08R-7" target="26--hZMdpes1O9Ble08R-4" edge="1">
          <mxGeometry relative="1" as="geometry" />
        </mxCell>
        <mxCell id="26--hZMdpes1O9Ble08R-7" value="Activities" style="text;html=1;strokeColor=none;fillColor=none;align=center;verticalAlign=middle;whiteSpace=wrap;rounded=0;fontStyle=1" parent="1" vertex="1">
          <mxGeometry x="400" y="65" width="60" height="30" as="geometry" />
        </mxCell>
        <mxCell id="26--hZMdpes1O9Ble08R-10" value="Anomalous events" style="text;html=1;strokeColor=none;fillColor=none;align=center;verticalAlign=middle;whiteSpace=wrap;rounded=0;fontStyle=1" parent="1" vertex="1">
          <mxGeometry x="640" y="65" width="80" height="30" as="geometry" />
        </mxCell>
      </root>
    </mxGraphModel>
  </diagram>
</mxfile>
